<svg xmlns="http://www.w3.org/2000/svg" xmlns:xlink="http://www.w3.org/1999/xlink" width="159" height="33" viewBox="0 0 159 33">
    <defs>
        <path id="prefix__a" d="M0.431 0.796L8.914 0.796 8.914 33 0.431 33z"/>
        <path id="prefix__c" d="M0 0.375L7.986 0.375 7.986 4.304 0 4.304z"/>
    </defs>
    <g fill="none" fill-rule="evenodd">
        <g transform="translate(9)">
            <mask id="prefix__b" fill="#fff">
                <use xlink:href="#prefix__a"/>
            </mask>
            <path fill="#040808" d="M1.941.796v4.541c2.501-.514 1.165-2.489 1.564-3.731 1.911.043 1.32 1.561 1.46 2.763l1.53-.53-.447-.688c.91-.46 1.447-.183 1.78.732.209.578.57 1.1.796 1.673.67 1.692.19 2.842-1.556 3.296-1.47.383-3.005.503-4.584.751v1.449l6.375-1.098c0 .896.06 1.736-.032 2.559-.032.29-.392.693-.68.78-1.813.552-3.645 1.028-5.638 1.575v1.182l6.352-1.083c0 .942.062 1.755-.03 2.55-.034.292-.384.698-.67.783-1.805.55-3.634 1.026-5.51 1.539.101 1.198.442 1.4 1.865 1.002 1.356-.377 2.735-.666 4.095-.993.58 2.087-.185 3.7-2.003 4.177-1.285.337-2.634.424-3.952.622.202 1.03.743 1.441 1.815 1.175.89-.22 1.742-.59 2.617-.87 1.363-.435 1.86-.03 1.759 1.43-.105 1.508-.782 2.747-1.849 3.765C5.208 31.857 3.061 32.743.432 33v-1.452c0-9.192-.004-18.384.005-27.576C.438 2.913.517 1.854.56.796H1.94z" mask="url(#prefix__b)"/>
        </g>
        <path fill="#040808" d="M40.92 18.76V8.91c0-.153-.023-.307-.031-.46-.147-2.918.258-3.372 3.14-3.437.93-.022 1.86-.022 2.786.043.766.053 1.192.527 1.185 1.306-.07 7.345-.14 14.692-.23 22.037-.004.485-.17.967-.276 1.542-2.381 0-4.702.034-7.018-.036-.345-.01-.779-.439-1-.783-2.212-3.481-4.377-6.991-6.582-10.477-.643-1.018-1.365-1.988-2.05-2.98l-.304.137c0 2.792-.004 5.583.001 8.374.004 1.269.091 2.542.022 3.807-.084 1.51-.607 1.938-2.124 1.969-.89.018-1.783.07-2.672.038-1.43-.05-1.76-.394-1.762-1.829-.008-6.775-.004-13.55-.004-20.325V5.091c2.48 0 4.881-.156 7.24.088.793.08 1.666 1.057 2.178 1.833 2.313 3.51 4.505 7.095 6.745 10.65.197.313.418.609.756 1.099M151.377 16.672l.233-.088c-.363-1.222-.449-2.627-1.149-3.625-1.72-2.456-4.36-2.958-7.225-2.452-2.549.449-4.422 2.334-4.934 4.82-.493 2.388.268 4.474 1.695 6.354.85 1.121 2.037 1.856 3.513 1.833 1.327-.022 2.676-.109 3.973-.366 2.047-.407 3.317-1.672 3.616-3.737.13-.908.188-1.826.278-2.739M144.942 4c7.77.144 12.482 4.096 13.832 11.062 1.417 7.311-4.005 14-11.624 14.819-3.848.414-7.456-.22-10.689-2.37-4.46-2.966-6.365-8.245-5.055-13.84 1.16-4.948 5.183-8.507 10.61-9.356.967-.15 1.95-.211 2.926-.315M122.156 20.728c-1.311-.176-2.518-.3-3.704-.526-.277-.053-.675-.442-.693-.698-.088-1.223-.122-2.456-.063-3.68.051-1.039.588-1.724 1.778-1.736 2.396-.024 4.794-.119 7.19-.087 1.825.023 2.256.528 2.275 2.323.026 2.764.072 5.53.058 8.295-.015 2.776-.562 3.467-3.292 4.275-3.586 1.06-7.23 1.43-10.946.792-7.125-1.224-11.422-6.803-10.675-13.853.72-6.806 5.374-11.203 12.442-11.75 2.372-.185 4.736-.106 6.98.713 1.16.424 2.295 1.014 3.3 1.72 1.329.93 1.284 1.613.181 2.831-.715.791-1.347 1.654-2.051 2.454-.15.17-.48.317-.689.277-.68-.13-1.354-.314-2.008-.54-1.212-.42-2.372-1.065-3.615-1.296-2.948-.548-5.605.962-6.729 3.675-.914 2.203-.914 4.429.114 6.596.902 1.9 2.438 2.984 4.62 3.039 1.256.031 2.515-.049 3.772-.051.9-.001 1.375-.374 1.436-1.287.032-.489.203-.97.32-1.486M78.918 15.194c1.435-.2 2.779-.298 4.078-.597.856-.196 1.281-.92 1.155-1.86-.12-.897-.626-1.554-1.508-1.626-1.224-.1-2.462-.026-3.725-.026v4.11zm.038 5.87c0 1.921-.006 3.755.001 5.59.011 3.015-.2 3.24-3.155 3.332-.113.004-.227.008-.34.01-2.992.051-3.461-.42-3.461-3.482 0-6.11-.003-12.22.002-18.33.002-3.087.012-3.13 3.027-3.15 3.02-.02 6.055-.123 9.051.163 1.502.144 3.046.88 4.366 1.692C90.23 7.987 91.034 9.77 91 11.971c-.092 5.952-2.256 8.359-8.112 8.851-1.306.11-2.617.163-3.931.242zM68.431 5.977c.08 1.397-.552 2.32-1.31 3.298-1.387 1.79-2.835 2.408-4.949 1.202-1.027-.585-2.265-.592-3.332.264-.583.469-.77 1.012-.254 1.556.456.48 1.013.935 1.615 1.175 1.053.42 2.187.623 3.263.994 3.032 1.049 5.113 2.993 5.488 6.383.35 3.166-1.227 6.165-4.218 7.678-3.954 1.999-7.954 1.997-11.874-.21-.23-.13-.446-.297-.653-.464-1.501-1.202-1.57-1.746-.384-3.286.702-.909 1.408-1.818 2.171-2.67.186-.207.64-.314.922-.25.47.107.984.296 1.333.616 1.556 1.436 3.33 1.294 5.135.778.307-.088.668-.551.716-.885.08-.543.251-1.172-.64-1.46-1.803-.583-3.582-1.262-5.324-2.012-3.798-1.633-5.24-4.072-4.727-7.818.47-3.431 3.216-6.35 6.713-6.726 2.128-.228 4.334-.173 6.452.135 1.321.193 2.541 1.095 3.857 1.702M100.997 17.646c0 3.542.008 7.083-.003 10.625-.005 1.455-.22 1.674-1.687 1.702-1.121.022-2.251.064-3.362-.041-1.381-.13-1.93-.758-1.932-2.122-.014-7.044 0-14.09-.013-21.135-.002-1.094.43-1.645 1.582-1.625 1.239.021 2.48-.082 3.717-.04 1.354.045 1.69.425 1.694 1.78.012 3.618.004 7.237.004 10.856M7.999 10.385c.022 1.448-.306 1.82-1.968 1.518-1.68-.307-3.342-.79-4.929-1.377C.596 10.34.36 9.576 0 9.077c.631-.016 1.292-.145 1.89-.029 2.002.388 3.984.864 6.109 1.337M7.997 25.88C3.445 26.354.402 25.43 0 23c.855.135 1.604.232 2.343.377 1.252.244 2.489.69 3.747.736 1.668.061 1.945.176 1.907 1.766M0 18c.864.098 1.539.093 2.16.258 1.851.497 3.68 1.06 5.7 1.651.282.942.233 1.118-1.07 1.088-1.435-.034-2.897-.177-4.288-.488C1.316 20.243.452 19.465 0 18"/>
        <g transform="translate(0 13)">
            <mask id="prefix__d" fill="#fff">
                <use xlink:href="#prefix__c"/>
            </mask>
            <path fill="#040808" d="M.253.375l7.69 1.976c.186 1.526-.219 2.179-1.626 1.884-1.614-.338-3.212-.923-4.724-1.634C.943 2.295.523 1.4 0 .771.085.64.17.507.253.375" mask="url(#prefix__d)"/>
        </g>
        <path fill="#040808" d="M7.692 6c-1.71-.572-1.751-.79-1.668-3.518C6.07.999 7.271 1.809 8 1c-.113 1.849-.205 3.345-.308 5M5 2v3c-.86-.52-1.938-.836-1.987-1.265C2.884 2.606 3.706 1.989 5 2"/>
    </g>
</svg>
